# xmcd
#
# Track frame offsets:
#	150
#	13173
#	29271
#	40494
#	56367
#	70065
#	83688
#	97686
#	113109
#	125382
#
# Disc length: 1867 seconds
#
# Revision: 1
# Processed by: cddbd v1.5.2PL0 Copyright (c) Steve Scherf et al.
# Submitted via: audiograbber 1.83.01
#
DISCID=7407490a
DTITLE=Hanging Tree - Hanging Tree 003
DYEAR=2007
DGENRE=Country
TTITLE0=From Divorce To The Barrooms  - Billy Crain
TTITLE1=If There´s No Tomorrow - Martha Welch
TTITLE2=Send Me The Pillow  - Bjarne Andersen
TTITLE3=Girls Night Out  - The Big River Bandits
TTITLE4=Maybe He Could Miss Her More  - Ed Bentley
TTITLE5=Jesus In Disquise  - Mike Haduck
TTITLE6=Rosie´s Gone Again  - Jim Fullen
TTITLE7=I Should Get Thirty Years  - Dean Holmen
TTITLE8=Seven Little Girls - Randall Cousin
TTITLE9=Simple Country Girl  - Trinity Jane 
EXTD=
EXTT0=
EXTT1=
EXTT2=
EXTT3=
EXTT4=
EXTT5=
EXTT6=
EXTT7=
EXTT8=
EXTT9=
PLAYORDER=
